<svg width="111" height="11" viewBox="0 0 111 11" fill="none" xmlns="http://www.w3.org/2000/svg">
<g style="mix-blend-mode:darken">
<path d="M0.315341 10L1.7642 1.27273H5.10511C5.7358 1.27273 6.24432 1.37216 6.63068 1.57102C7.01705 1.76705 7.28551 2.03551 7.43608 2.37642C7.58949 2.71733 7.62926 3.10369 7.5554 3.53551C7.49574 3.88778 7.37642 4.19034 7.19744 4.44318C7.02131 4.69318 6.8054 4.89773 6.54972 5.05682C6.29403 5.21307 6.01989 5.32528 5.72727 5.39347L5.71023 5.47869C6.01705 5.4929 6.2983 5.58665 6.55398 5.75994C6.80966 5.93324 7.00284 6.17756 7.13352 6.4929C7.2642 6.8054 7.29403 7.18182 7.22301 7.62216C7.14631 8.07386 6.96875 8.48011 6.69034 8.84091C6.41193 9.19886 6.03409 9.48153 5.55682 9.68892C5.08239 9.89631 4.51278 10 3.84801 10H0.315341ZM2.1179 8.67898H3.81818C4.3892 8.67898 4.82102 8.5696 5.11364 8.35085C5.40625 8.12926 5.58097 7.84517 5.63778 7.49858C5.6804 7.24006 5.65483 7.0071 5.56108 6.79972C5.46733 6.58949 5.3125 6.42472 5.09659 6.3054C4.88068 6.18324 4.6108 6.12216 4.28693 6.12216H2.53977L2.1179 8.67898ZM2.7358 4.98438H4.29972C4.57244 4.98438 4.82528 4.93466 5.05824 4.83523C5.29403 4.73295 5.49006 4.58949 5.64631 4.40483C5.8054 4.21733 5.90341 3.99574 5.94034 3.74006C6 3.40199 5.92898 3.12358 5.72727 2.90483C5.52557 2.68608 5.19318 2.5767 4.73011 2.5767H3.12784L2.7358 4.98438ZM8.13388 10L9.22479 3.45455H10.7674L9.67649 10H8.13388ZM10.2219 2.51705C9.97479 2.51705 9.77024 2.43466 9.60831 2.26989C9.44638 2.10511 9.37536 1.90767 9.39524 1.67756C9.41513 1.44744 9.51882 1.25 9.70632 1.08523C9.89666 0.920455 10.114 0.838068 10.3583 0.838068C10.6055 0.838068 10.8086 0.920455 10.9677 1.08523C11.1296 1.25 11.2006 1.44744 11.1808 1.67756C11.1637 1.90767 11.06 2.10511 10.8697 2.26989C10.6822 2.43466 10.4663 2.51705 10.2219 2.51705ZM15.6222 3.45455L15.4219 4.64773H11.6634L11.8594 3.45455H15.6222ZM13.044 1.88636H14.5866L13.5639 8.03125C13.5327 8.23864 13.5384 8.39773 13.581 8.50852C13.6264 8.61648 13.6989 8.69034 13.7983 8.73011C13.9006 8.76989 14.0156 8.78977 14.1435 8.78977C14.2372 8.78977 14.3253 8.78267 14.4077 8.76847C14.4901 8.75142 14.5554 8.73864 14.6037 8.73011L14.6719 9.93608C14.5781 9.96449 14.4517 9.99574 14.2926 10.0298C14.1364 10.0639 13.9489 10.0838 13.7301 10.0895C13.3381 10.098 12.9972 10.0384 12.7074 9.91051C12.4205 9.77983 12.2102 9.57955 12.0767 9.30966C11.946 9.03693 11.9162 8.69602 11.9872 8.28693L13.044 1.88636ZM18.6317 10.1278C17.9755 10.1278 17.4329 9.99148 17.0039 9.71875C16.5749 9.44318 16.2738 9.05398 16.1005 8.55114C15.93 8.04545 15.9016 7.45028 16.0153 6.76562C16.1261 6.09233 16.3519 5.50142 16.6928 4.9929C17.0337 4.48153 17.4599 4.08381 17.9712 3.79972C18.4854 3.51278 19.0536 3.36932 19.6758 3.36932C20.0792 3.36932 20.4499 3.43466 20.788 3.56534C21.1261 3.69318 21.4116 3.89205 21.6445 4.16193C21.8775 4.43182 22.038 4.77557 22.1261 5.19318C22.2141 5.60795 22.2099 6.10227 22.1133 6.67614L22.0408 7.14915H16.6715L16.8377 6.10938H20.7241C20.7752 5.81392 20.7582 5.55114 20.6729 5.32102C20.5877 5.08807 20.4457 4.90483 20.2468 4.77131C20.0479 4.63778 19.7994 4.57102 19.5011 4.57102C19.1971 4.57102 18.913 4.64915 18.6488 4.8054C18.3874 4.95881 18.1673 5.15767 17.9883 5.40199C17.8093 5.64631 17.6957 5.90341 17.6474 6.1733L17.4727 7.17045C17.4102 7.57955 17.4244 7.91335 17.5153 8.17188C17.6062 8.4304 17.7653 8.62074 17.9925 8.7429C18.2198 8.86506 18.5067 8.92614 18.8533 8.92614C19.0806 8.92614 19.2908 8.89489 19.484 8.83239C19.6772 8.76989 19.8491 8.67614 19.9996 8.55114C20.1531 8.4233 20.2809 8.26705 20.3832 8.08239L21.7937 8.24432C21.6374 8.625 21.4087 8.95739 21.1076 9.24148C20.8065 9.52273 20.4457 9.74148 20.0252 9.89773C19.6076 10.0511 19.1431 10.1278 18.6317 10.1278ZM24.3931 1.27273H26.3278L27.8746 7.59659H27.9769L31.6119 1.27273H33.5465L32.0977 10H30.5806L31.5778 4.00426H31.5011L28.092 9.97443H26.9627L25.5479 3.99148H25.467L24.4613 10H22.9442L24.3931 1.27273ZM36.6317 10.1278C35.9755 10.1278 35.4329 9.99148 35.0039 9.71875C34.5749 9.44318 34.2738 9.05398 34.1005 8.55114C33.93 8.04545 33.9016 7.45028 34.0153 6.76562C34.1261 6.09233 34.3519 5.50142 34.6928 4.9929C35.0337 4.48153 35.4599 4.08381 35.9712 3.79972C36.4854 3.51278 37.0536 3.36932 37.6758 3.36932C38.0792 3.36932 38.4499 3.43466 38.788 3.56534C39.1261 3.69318 39.4116 3.89205 39.6445 4.16193C39.8775 4.43182 40.038 4.77557 40.1261 5.19318C40.2141 5.60795 40.2099 6.10227 40.1133 6.67614L40.0408 7.14915H34.6715L34.8377 6.10938H38.7241C38.7752 5.81392 38.7582 5.55114 38.6729 5.32102C38.5877 5.08807 38.4457 4.90483 38.2468 4.77131C38.0479 4.63778 37.7994 4.57102 37.5011 4.57102C37.1971 4.57102 36.913 4.64915 36.6488 4.8054C36.3874 4.95881 36.1673 5.15767 35.9883 5.40199C35.8093 5.64631 35.6957 5.90341 35.6474 6.1733L35.4727 7.17045C35.4102 7.57955 35.4244 7.91335 35.5153 8.17188C35.6062 8.4304 35.7653 8.62074 35.9925 8.7429C36.2198 8.86506 36.5067 8.92614 36.8533 8.92614C37.0806 8.92614 37.2908 8.89489 37.484 8.83239C37.6772 8.76989 37.8491 8.67614 37.9996 8.55114C38.1531 8.4233 38.2809 8.26705 38.3832 8.08239L39.7937 8.24432C39.6374 8.625 39.4087 8.95739 39.1076 9.24148C38.8065 9.52273 38.4457 9.74148 38.0252 9.89773C37.6076 10.0511 37.1431 10.1278 36.6317 10.1278ZM46.7269 3.71449C46.7383 3.3196 46.6175 3.01705 46.3647 2.80682C46.1147 2.59659 45.7553 2.49148 45.2866 2.49148C44.957 2.49148 44.6658 2.54119 44.413 2.64062C44.163 2.73722 43.9613 2.87216 43.8079 3.04545C43.6545 3.21591 43.5593 3.41051 43.5224 3.62926C43.4911 3.80824 43.5067 3.96449 43.5692 4.09801C43.6317 4.23153 43.7269 4.34517 43.8548 4.43892C43.9854 4.53267 44.1332 4.6108 44.2979 4.6733C44.4656 4.7358 44.636 4.78835 44.8093 4.83097L45.5934 5.03551C45.9059 5.11222 46.2042 5.21591 46.4883 5.34659C46.7724 5.47443 47.0181 5.6392 47.2255 5.84091C47.4357 6.03977 47.5891 6.27983 47.6857 6.56108C47.7823 6.84233 47.7979 7.17187 47.7326 7.54972C47.6474 8.06108 47.4414 8.51136 47.1147 8.90057C46.7908 9.28693 46.3647 9.58949 45.8363 9.80824C45.3107 10.0241 44.6985 10.1321 43.9996 10.1321C43.3235 10.1321 42.7525 10.027 42.2866 9.81676C41.8207 9.60369 41.4798 9.29545 41.2638 8.89205C41.0508 8.48864 40.9826 7.99858 41.0593 7.42188H42.6147C42.5835 7.72585 42.6332 7.97869 42.7638 8.1804C42.8974 8.3821 43.0891 8.53267 43.3391 8.6321C43.5891 8.73153 43.8789 8.78125 44.2085 8.78125C44.5522 8.78125 44.8633 8.73011 45.1417 8.62784C45.4201 8.52273 45.6474 8.37784 45.8235 8.19318C46.0025 8.00568 46.1119 7.78693 46.1516 7.53693C46.1914 7.3125 46.1587 7.125 46.0536 6.97443C45.9485 6.82386 45.7852 6.69886 45.5636 6.59943C45.3448 6.49716 45.0835 6.40625 44.7795 6.3267L43.8335 6.07102C43.1488 5.88352 42.6289 5.60227 42.2738 5.22727C41.9215 4.85227 41.7965 4.35227 41.8988 3.72727C41.984 3.21023 42.1985 2.75994 42.5423 2.37642C42.886 1.99006 43.3164 1.69034 43.8335 1.47727C44.3505 1.26136 44.9158 1.15341 45.5295 1.15341C46.1488 1.15341 46.6729 1.26136 47.1019 1.47727C47.5337 1.69318 47.8491 1.99432 48.0479 2.38068C48.2496 2.7642 48.3164 3.20881 48.2482 3.71449H46.7269ZM50.5355 10.1321C50.1207 10.1321 49.7599 10.0582 49.4531 9.91051C49.1463 9.75994 48.9205 9.53835 48.7756 9.24574C48.6335 8.95312 48.598 8.59233 48.669 8.16335C48.7315 7.79403 48.8509 7.48864 49.027 7.24716C49.206 7.00568 49.4247 6.8125 49.6832 6.66761C49.9446 6.51989 50.2287 6.40909 50.5355 6.33523C50.8452 6.26136 51.1605 6.20739 51.4815 6.1733C51.8736 6.13352 52.1903 6.09659 52.4318 6.0625C52.6761 6.02841 52.8594 5.97727 52.9815 5.90909C53.1037 5.83807 53.1776 5.73011 53.2031 5.58523V5.55966C53.2543 5.23864 53.2031 4.99006 53.0497 4.81392C52.8963 4.63778 52.6406 4.54972 52.2827 4.54972C51.9077 4.54972 51.5923 4.6321 51.3366 4.79688C51.081 4.96165 50.8949 5.15625 50.7784 5.38068L49.3807 5.17614C49.5568 4.77841 49.7983 4.44602 50.1051 4.17898C50.4119 3.90909 50.7656 3.70739 51.1662 3.57386C51.5696 3.4375 52 3.36932 52.4574 3.36932C52.7699 3.36932 53.0753 3.40625 53.3736 3.48011C53.6747 3.55398 53.9403 3.67614 54.1705 3.84659C54.4034 4.0142 54.5739 4.2429 54.6818 4.53267C54.7926 4.82244 54.8111 5.18466 54.7372 5.61932L54.0085 10H52.5256L52.679 9.10085H52.6278C52.5057 9.28267 52.3466 9.45312 52.1506 9.61222C51.9545 9.76847 51.7216 9.89489 51.4517 9.99148C51.1818 10.0852 50.8764 10.1321 50.5355 10.1321ZM51.1193 8.99858C51.429 8.99858 51.7074 8.9375 51.9545 8.81534C52.2017 8.69034 52.4048 8.52557 52.5639 8.32102C52.723 8.11648 52.8224 7.89347 52.8622 7.65199L52.9901 6.88068C52.9332 6.92045 52.8452 6.95739 52.7259 6.99148C52.6065 7.02557 52.473 7.0554 52.3253 7.08097C52.1804 7.10653 52.0369 7.12926 51.8949 7.14915C51.7528 7.16903 51.6307 7.18608 51.5284 7.20028C51.2926 7.23153 51.0767 7.28267 50.8807 7.35369C50.6875 7.42472 50.527 7.52415 50.3991 7.65199C50.2741 7.77699 50.196 7.93892 50.1648 8.13778C50.1193 8.41903 50.1861 8.63352 50.3651 8.78125C50.544 8.92614 50.7955 8.99858 51.1193 8.99858ZM57.7415 6.16477L57.1108 10H55.5639L56.6548 3.45455H58.1335L57.946 4.56676H58.027C58.2315 4.20028 58.5185 3.90909 58.8878 3.69318C59.2571 3.47727 59.6875 3.36932 60.179 3.36932C60.625 3.36932 61 3.46591 61.304 3.65909C61.608 3.84943 61.8239 4.12926 61.9517 4.49858C62.0795 4.86506 62.0994 5.30966 62.0114 5.83239L61.3125 10H59.7699L60.4219 6.07102C60.4957 5.63636 60.4403 5.29545 60.2557 5.0483C60.0739 4.7983 59.7813 4.6733 59.3778 4.6733C59.108 4.6733 58.8594 4.73295 58.6321 4.85227C58.4048 4.96875 58.2131 5.13778 58.0568 5.35938C57.9034 5.58097 57.7983 5.84943 57.7415 6.16477ZM65.2926 10.1151C64.7784 10.1151 64.3395 9.98295 63.9759 9.71875C63.6122 9.45455 63.3537 9.07102 63.2003 8.56818C63.0497 8.06534 63.0327 7.45455 63.1491 6.7358C63.2713 6.00852 63.4943 5.39489 63.8182 4.89489C64.142 4.39205 64.5284 4.01278 64.9773 3.7571C65.429 3.49858 65.9063 3.36932 66.4091 3.36932C66.7955 3.36932 67.1009 3.43466 67.3253 3.56534C67.5526 3.69318 67.723 3.84801 67.8366 4.02983C67.9503 4.20881 68.0341 4.37784 68.0881 4.53693H68.152L68.6932 1.27273H70.2401L68.7912 10H67.2741L67.4489 8.96875H67.3551C67.2472 9.12784 67.1037 9.29687 66.9247 9.47585C66.7457 9.65199 66.5227 9.80256 66.2557 9.92756C65.9886 10.0526 65.6676 10.1151 65.2926 10.1151ZM65.9062 8.84943C66.2358 8.84943 66.5313 8.76136 66.7926 8.58523C67.0568 8.40625 67.277 8.15767 67.4531 7.83949C67.6293 7.52131 67.7528 7.15057 67.8239 6.72727C67.8949 6.30398 67.8949 5.93608 67.8239 5.62358C67.7528 5.31108 67.6151 5.06818 67.4105 4.89489C67.206 4.72159 66.9375 4.63494 66.6051 4.63494C66.2642 4.63494 65.9645 4.72443 65.706 4.90341C65.4503 5.08239 65.2401 5.32955 65.0753 5.64489C64.9105 5.96023 64.794 6.32102 64.7259 6.72727C64.6577 7.13636 64.6534 7.50142 64.7131 7.82244C64.7756 8.14062 64.9048 8.39205 65.1009 8.5767C65.2997 8.75852 65.5682 8.84943 65.9062 8.84943ZM71.7933 10L71.0348 3.45455H72.6072L72.9908 8.05682H73.0504L74.9936 3.45455H76.549L76.9581 8.03125H77.022L78.9226 3.45455H80.4993L77.5547 10H75.9482L75.4538 5.5767H75.3643L73.4041 10H71.7933ZM80.4854 10L81.5763 3.45455H83.119L82.0281 10H80.4854ZM82.5735 2.51705C82.3263 2.51705 82.1218 2.43466 81.9599 2.26989C81.7979 2.10511 81.7269 1.90767 81.7468 1.67756C81.7667 1.44744 81.8704 1.25 82.0579 1.08523C82.2482 0.920455 82.4656 0.838068 82.7099 0.838068C82.957 0.838068 83.1602 0.920455 83.3192 1.08523C83.4812 1.25 83.5522 1.44744 83.5323 1.67756C83.5153 1.90767 83.4116 2.10511 83.2212 2.26989C83.0337 2.43466 82.8178 2.51705 82.5735 2.51705ZM86.4524 10.1278C85.799 10.1278 85.2621 9.98438 84.8416 9.69744C84.4212 9.41051 84.1271 9.0142 83.9595 8.50852C83.7947 8 83.7678 7.41477 83.8786 6.75284C83.9865 6.08807 84.2095 5.50142 84.5476 4.9929C84.8885 4.48153 85.3175 4.08381 85.8345 3.79972C86.3516 3.51278 86.9297 3.36932 87.5689 3.36932C88.1001 3.36932 88.5533 3.46733 88.9283 3.66335C89.3061 3.85653 89.5874 4.13068 89.772 4.4858C89.9595 4.83807 90.032 5.25 89.9893 5.72159H88.5107C88.505 5.40625 88.407 5.14347 88.2166 4.93324C88.0263 4.72017 87.7479 4.61364 87.3814 4.61364C87.0632 4.61364 86.7706 4.69886 86.5036 4.86932C86.2365 5.03693 86.0107 5.27841 85.826 5.59375C85.6413 5.90909 85.5135 6.28693 85.4425 6.72727C85.3686 7.1733 85.37 7.55682 85.4467 7.87784C85.5263 8.19602 85.6697 8.44176 85.8771 8.61506C86.0874 8.78551 86.353 8.87074 86.674 8.87074C86.9013 8.87074 87.1129 8.82812 87.3089 8.7429C87.505 8.65483 87.6768 8.52841 87.8246 8.36364C87.9751 8.19886 88.093 7.99858 88.1783 7.76278H89.6527C89.5362 8.22585 89.3288 8.63636 89.0305 8.99432C88.7351 9.34943 88.3686 9.62784 87.9311 9.82955C87.4936 10.0284 87.0007 10.1278 86.4524 10.1278ZM92.7219 6.16477L92.0913 10H90.5444L91.9933 1.27273H93.506L92.9606 4.56676H93.0415C93.2489 4.1946 93.5316 3.90199 93.8896 3.68892C94.2504 3.47585 94.6836 3.36932 95.1893 3.36932C95.6381 3.36932 96.016 3.46449 96.3228 3.65483C96.6296 3.84517 96.8455 4.12358 96.9705 4.49006C97.0984 4.85653 97.1197 5.30398 97.0344 5.83239L96.3356 10H94.7887L95.445 6.07102C95.516 5.63068 95.4577 5.28835 95.2702 5.04403C95.0856 4.79687 94.793 4.6733 94.3924 4.6733C94.1168 4.6733 93.8626 4.73295 93.6296 4.85227C93.3967 4.96875 93.2006 5.13778 93.0415 5.35938C92.8853 5.58097 92.7788 5.84943 92.7219 6.16477ZM100.78 10.1278C100.124 10.1278 99.5813 9.99148 99.1523 9.71875C98.7234 9.44318 98.4222 9.05398 98.2489 8.55114C98.0785 8.04545 98.0501 7.45028 98.1637 6.76562C98.2745 6.09233 98.5004 5.50142 98.8413 4.9929C99.1822 4.48153 99.6083 4.08381 100.12 3.79972C100.634 3.51278 101.202 3.36932 101.824 3.36932C102.228 3.36932 102.598 3.43466 102.936 3.56534C103.275 3.69318 103.56 3.89205 103.793 4.16193C104.026 4.43182 104.186 4.77557 104.275 5.19318C104.363 5.60795 104.358 6.10227 104.262 6.67614L104.189 7.14915H98.82L98.9862 6.10938H102.873C102.924 5.81392 102.907 5.55114 102.821 5.32102C102.736 5.08807 102.594 4.90483 102.395 4.77131C102.196 4.63778 101.948 4.57102 101.65 4.57102C101.346 4.57102 101.061 4.64915 100.797 4.8054C100.536 4.95881 100.316 5.15767 100.137 5.40199C99.9577 5.64631 99.8441 5.90341 99.7958 6.1733L99.6211 7.17045C99.5586 7.57955 99.5728 7.91335 99.6637 8.17188C99.7546 8.4304 99.9137 8.62074 100.141 8.7429C100.368 8.86506 100.655 8.92614 101.002 8.92614C101.229 8.92614 101.439 8.89489 101.632 8.83239C101.826 8.76989 101.998 8.67614 102.148 8.55114C102.301 8.4233 102.429 8.26705 102.532 8.08239L103.942 8.24432C103.786 8.625 103.557 8.95739 103.256 9.24148C102.955 9.52273 102.594 9.74148 102.174 9.89773C101.756 10.0511 101.292 10.1278 100.78 10.1278ZM110.995 5.18466L109.576 5.33807C109.561 5.19318 109.517 5.05824 109.444 4.93324C109.37 4.80824 109.259 4.70881 109.111 4.63494C108.966 4.55824 108.779 4.51989 108.549 4.51989C108.213 4.51989 107.919 4.59517 107.667 4.74574C107.414 4.89631 107.27 5.08949 107.236 5.32528C107.205 5.50142 107.248 5.64489 107.364 5.75568C107.48 5.86648 107.696 5.96023 108.012 6.03693L109.094 6.27557C109.691 6.40909 110.12 6.625 110.381 6.9233C110.645 7.22159 110.738 7.61222 110.658 8.09517C110.59 8.49858 110.414 8.85369 110.13 9.16051C109.846 9.46449 109.482 9.7017 109.039 9.87216C108.598 10.0426 108.11 10.1278 107.573 10.1278C106.757 10.1278 106.13 9.95881 105.689 9.62074C105.252 9.27983 105.034 8.81108 105.037 8.21449L106.554 8.0696C106.571 8.36506 106.675 8.58807 106.865 8.73864C107.056 8.88636 107.32 8.96165 107.658 8.96449C108.039 8.96733 108.36 8.88778 108.621 8.72585C108.885 8.56108 109.034 8.3608 109.069 8.125C109.097 7.94886 109.053 7.8054 108.936 7.6946C108.823 7.58381 108.62 7.49574 108.327 7.4304L107.253 7.19602C106.645 7.0625 106.212 6.83665 105.953 6.51847C105.698 6.19744 105.611 5.79261 105.694 5.30398C105.762 4.90625 105.928 4.56392 106.192 4.27699C106.459 3.98722 106.801 3.7642 107.219 3.60795C107.637 3.44886 108.104 3.36932 108.621 3.36932C109.4 3.36932 109.986 3.53267 110.381 3.85938C110.776 4.18608 110.98 4.62784 110.995 5.18466Z" fill="black"/>
</g>
</svg>
